<svg xmlns="http://www.w3.org/2000/svg" width="709" height="177" viewBox="0 0 709 177">
  <g id="plchd2" transform="translate(1005 963)">
    <g id="Group_718" data-name="Group 718" transform="translate(-1004.618 -962.662)">
      <rect id="Rectangle_9" data-name="Rectangle 9" width="469" height="177" transform="translate(239.618 -0.338)" fill="#7c7b7b"/>
      <rect id="Rectangle_10" data-name="Rectangle 10" width="232" height="177" transform="translate(-0.382 -0.338)" fill="#7c7b7b"/>
    </g>
    <g id="Group_717" data-name="Group 717" transform="translate(-562.759 -897.535)">
      <g id="Rectangle_641" data-name="Rectangle 641" transform="translate(-0.242 -0.465)" fill="none" stroke="#fff" stroke-width="1">
        <rect width="75" height="49" stroke="none"/>
        <rect x="0.5" y="0.5" width="74" height="48" fill="none"/>
      </g>
      <g id="Group_655" data-name="Group 655" transform="translate(13.025 12.023)">
        <g id="Polygon_1" data-name="Polygon 1" transform="translate(-0.267 7.512)" fill="#d5d5d5">
          <path d="M 35.10117340087891 28.5 L 0.8988282680511475 28.5 L 18 0.9481122493743896 L 35.10117340087891 28.5 Z" stroke="none"/>
          <path d="M 18 1.896224975585938 L 1.797657012939453 28 L 34.20234298706055 28 L 18 1.896224975585938 M 18 0 L 36 29 L 0 29 L 18 0 Z" stroke="none" fill="#fff"/>
        </g>
        <g id="Polygon_2" data-name="Polygon 2" transform="translate(16.733 -0.488)" fill="#ecebeb">
          <path d="M 44.11075592041016 36.5 L 0.8892444372177124 36.5 L 22.5 0.9623131155967712 L 44.11075592041016 36.5 Z" stroke="none"/>
          <path d="M 22.5 1.924625396728516 L 1.778488159179688 36 L 43.22151184082031 36 L 22.5 1.924625396728516 M 22.5 0 L 45 37 L 0 37 L 22.5 0 Z" stroke="none" fill="#fff"/>
        </g>
      </g>
      <g id="Ellipse_24" data-name="Ellipse 24" transform="translate(13.758 5.535)" fill="#a0a0a0" stroke="#fff" stroke-width="1">
        <ellipse cx="6.5" cy="5.5" rx="6.5" ry="5.5" stroke="none"/>
        <ellipse cx="6.5" cy="5.5" rx="6" ry="5" fill="none"/>
      </g>
    </g>
    <g id="Group_719" data-name="Group 719" transform="translate(-909.433 -897.535)">
      <g id="Rectangle_641-2" data-name="Rectangle 641" transform="translate(0.433 -0.465)" fill="none" stroke="#fff" stroke-width="1">
        <rect width="73" height="49" stroke="none"/>
        <rect x="0.5" y="0.5" width="72" height="48" fill="none"/>
      </g>
      <g id="Group_655-2" data-name="Group 655" transform="translate(10.019 12.023)">
        <g id="Polygon_1-2" data-name="Polygon 1" transform="translate(0.413 7.512)" fill="#d5d5d5">
          <path d="M 34.11429595947266 28.5 L 0.885702908039093 28.5 L 17.5 0.9677363038063049 L 34.11429595947266 28.5 Z" stroke="none"/>
          <path d="M 17.5 1.935489654541016 L 1.771415710449219 28 L 33.22858428955078 28 L 17.5 1.935489654541016 M 17.5 0 L 35 29 L 0 29 L 17.5 0 Z" stroke="none" fill="#fff"/>
        </g>
        <g id="Polygon_2-2" data-name="Polygon 2" transform="translate(19.413 -0.488)" fill="#ecebeb">
          <path d="M 43.12099075317383 36.5 L 0.879010021686554 36.5 L 22 0.9783350229263306 L 43.12099075317383 36.5 Z" stroke="none"/>
          <path d="M 22 1.956668853759766 L 1.758018493652344 36 L 42.24198150634766 36 L 22 1.956668853759766 M 22 0 L 44 37 L 0 37 L 22 0 Z" stroke="none" fill="#fff"/>
        </g>
      </g>
      <g id="Ellipse_24-2" data-name="Ellipse 24" transform="translate(12.433 5.535)" fill="#a0a0a0" stroke="#fff" stroke-width="1">
        <ellipse cx="6" cy="5.5" rx="6" ry="5.5" stroke="none"/>
        <ellipse cx="6" cy="5.5" rx="5.5" ry="5" fill="none"/>
      </g>
    </g>
  </g>
</svg>
