<svg xmlns="http://www.w3.org/2000/svg" width="709" height="176" viewBox="0 0 709 176">
  <g id="plchd1" transform="translate(1005 1156)">
    <g id="Group_716" data-name="Group 716" transform="translate(-1004.618 -1156.038)">
      <rect id="Rectangle_9" data-name="Rectangle 9" width="471" height="176" transform="translate(-0.382 0.038)" fill="#7c7b7b"/>
      <rect id="Rectangle_10" data-name="Rectangle 10" width="231" height="176" transform="translate(477.618 0.038)" fill="#7c7b7b"/>
    </g>
    <g id="Group_721" data-name="Group 721" transform="translate(-452.544 -1088.907)">
      <g id="Rectangle_641" data-name="Rectangle 641" transform="translate(-0.456 -0.093)" fill="none" stroke="#fff" stroke-width="1">
        <rect width="74" height="44" stroke="none"/>
        <rect x="0.5" y="0.5" width="73" height="43" fill="none"/>
      </g>
      <g id="Group_655" data-name="Group 655" transform="translate(12.023 9.018)">
        <g id="Polygon_1" data-name="Polygon 1" transform="translate(-0.479 6.89)" fill="#d5d5d5">
          <path d="M 35.08416748046875 27.5 L 0.9158343076705933 27.5 L 18 0.9246311187744141 L 35.08416748046875 27.5 Z" stroke="none"/>
          <path d="M 18 1.849262237548828 L 1.831668853759766 27 L 34.16833114624023 27 L 18 1.849262237548828 M 18 0 L 36 28 L 0 28 L 18 0 Z" stroke="none" fill="#fff"/>
        </g>
        <g id="Polygon_2" data-name="Polygon 2" transform="translate(19.521 -0.11)" fill="#ecebeb">
          <path d="M 41.11690139770508 34.5 L 0.8830999732017517 34.5 L 21 0.971833348274231 L 41.11690139770508 34.5 Z" stroke="none"/>
          <path d="M 21 1.943649291992188 L 1.766189575195312 34 L 40.23381042480469 34 L 21 1.943649291992188 M 21 0 L 42 35 L 0 35 L 21 0 Z" stroke="none" fill="#fff"/>
        </g>
      </g>
      <g id="Ellipse_24" data-name="Ellipse 24" transform="translate(12.544 3.907)" fill="#a0a0a0" stroke="#fff" stroke-width="1">
        <ellipse cx="6" cy="5.5" rx="6" ry="5.5" stroke="none"/>
        <ellipse cx="6" cy="5.5" rx="5.5" ry="5" fill="none"/>
      </g>
    </g>
    <g id="Group_720" data-name="Group 720" transform="translate(-825.269 -1088.907)">
      <g id="Rectangle_641-2" data-name="Rectangle 641" transform="translate(0.269 -0.093)" fill="none" stroke="#fff" stroke-width="1">
        <rect width="74" height="44" stroke="none"/>
        <rect x="0.5" y="0.5" width="73" height="43" fill="none"/>
      </g>
      <g id="Group_655-2" data-name="Group 655" transform="translate(13.025 9.018)">
        <g id="Polygon_1-2" data-name="Polygon 1" transform="translate(0.244 6.89)" fill="#d5d5d5">
          <path d="M 35.08416748046875 27.5 L 0.9158343076705933 27.5 L 18 0.9246311187744141 L 35.08416748046875 27.5 Z" stroke="none"/>
          <path d="M 18 1.849262237548828 L 1.831668853759766 27 L 34.16833114624023 27 L 18 1.849262237548828 M 18 0 L 36 28 L 0 28 L 18 0 Z" stroke="none" fill="#fff"/>
        </g>
        <g id="Polygon_2-2" data-name="Polygon 2" transform="translate(17.244 -0.11)" fill="#ecebeb">
          <path d="M 43.09513854980469 34.5 L 0.9048622846603394 34.5 L 22 0.9395536184310913 L 43.09513854980469 34.5 Z" stroke="none"/>
          <path d="M 22 1.879096984863281 L 1.809719085693359 34 L 42.19028091430664 34 L 22 1.879096984863281 M 22 0 L 44 35 L 0 35 L 22 0 Z" stroke="none" fill="#fff"/>
        </g>
      </g>
      <g id="Ellipse_24-2" data-name="Ellipse 24" transform="translate(14.269 3.907)" fill="#a0a0a0" stroke="#fff" stroke-width="1">
        <ellipse cx="6" cy="5.5" rx="6" ry="5.5" stroke="none"/>
        <ellipse cx="6" cy="5.5" rx="5.5" ry="5" fill="none"/>
      </g>
    </g>
  </g>
</svg>
