<svg xmlns="http://www.w3.org/2000/svg" width="2919.958" height="395.921" viewBox="0 0 2919.958 395.921">
  <g id="socials" transform="translate(-1571.447 -1003)">
    <path id="Path_980" data-name="Path 980" d="M357.431,178.716A178.716,178.716,0,1,0,150.791,355.26V230.376H105.413V178.716h45.378V139.343c0-44.79,26.683-69.532,67.5-69.532A274.718,274.718,0,0,1,258.3,73.3v43.98H235.764c-22.2,0-29.124,13.776-29.124,27.909v33.524h49.566l-7.924,51.661H206.64V355.26A178.761,178.761,0,0,0,357.431,178.716" transform="translate(2845.938 1034.81)" fill="#fff"/>
    <path id="Path_970" data-name="Path 970" d="M620.731,83.357c52.858,0,59.118.2,80,1.15,19.3.88,29.782,4.108,36.755,6.819A65.542,65.542,0,0,1,775.053,128.9c2.711,6.973,5.934,17.458,6.819,36.756.951,20.877,1.151,27.137,1.151,79.995s-.2,59.118-1.151,79.995c-.885,19.3-4.108,29.783-6.819,36.755a65.543,65.543,0,0,1-37.571,37.571c-6.973,2.711-17.458,5.934-36.755,6.819-20.873.95-27.133,1.15-80,1.15s-59.122-.2-79.995-1.15c-19.3-.885-29.783-4.108-36.755-6.819A65.548,65.548,0,0,1,466.41,362.4c-2.711-6.973-5.939-17.458-6.819-36.755-.95-20.877-1.151-27.137-1.151-79.995s.2-59.118,1.151-79.995c.88-19.3,4.108-29.783,6.819-36.756a65.548,65.548,0,0,1,37.571-37.571c6.973-2.711,17.458-5.939,36.755-6.819,20.877-.95,27.137-1.15,79.995-1.15m0-35.67c-53.761,0-60.506.228-81.62,1.192-21.068.959-35.461,4.309-48.051,9.2a101.215,101.215,0,0,0-57.9,57.9c-4.891,12.59-8.24,26.983-9.2,48.051-.964,21.114-1.192,27.859-1.192,81.62s.228,60.506,1.192,81.621c.96,21.068,4.309,35.461,9.2,48.051a101.216,101.216,0,0,0,57.9,57.9c12.59,4.891,26.983,8.24,48.051,9.2,21.114.964,27.859,1.193,81.62,1.193s60.506-.228,81.621-1.193c21.068-.959,35.46-4.308,48.05-9.2a101.217,101.217,0,0,0,57.9-57.9c4.891-12.59,8.24-26.983,9.2-48.051.964-21.114,1.193-27.859,1.193-81.621s-.229-60.506-1.193-81.62c-.959-21.068-4.308-35.461-9.2-48.051a101.216,101.216,0,0,0-57.9-57.9c-12.59-4.891-26.982-8.24-48.05-9.2-21.114-.964-27.859-1.192-81.621-1.192" transform="translate(1148.676 955.313)" fill="#fff"/>
    <path id="Path_971" data-name="Path 971" d="M545.1,68.362A101.656,101.656,0,1,0,646.755,170.016,101.658,101.658,0,0,0,545.1,68.362M545.1,236a65.984,65.984,0,1,1,65.989-65.988A65.99,65.99,0,0,1,545.1,236" transform="translate(1228.327 1030.943)" fill="#fff"/>
    <path id="Path_974" data-name="Path 974" d="M1003.293,396.088c156.959,0,242.8-130.035,242.8-242.793q0-5.542-.243-11.031a173.716,173.716,0,0,0,42.566-44.181,170.278,170.278,0,0,1-49,13.431,85.632,85.632,0,0,0,37.526-47.2,171.058,171.058,0,0,1-54.184,20.715,85.41,85.41,0,0,0-145.423,77.822A242.26,242.26,0,0,1,901.439,73.692a85.392,85.392,0,0,0,26.414,113.92,84.749,84.749,0,0,1-38.65-10.679c-.015.357-.015.714-.015,1.09a85.374,85.374,0,0,0,68.458,83.659,85.254,85.254,0,0,1-38.535,1.462,85.428,85.428,0,0,0,79.717,59.269,171.218,171.218,0,0,1-105.984,36.526,173.237,173.237,0,0,1-20.358-1.181,241.567,241.567,0,0,0,130.807,38.33" transform="translate(1326.21 1002.829)" fill="#fff"/>
    <path id="Path_976" data-name="Path 976" d="M844.208,303.035a54.217,54.217,0,0,0-38.281-38.281C772.164,255.7,636.763,255.7,636.763,255.7s-135.4,0-169.162,9.049a54.216,54.216,0,0,0-38.281,38.281c-9.049,33.764-9.049,104.215-9.049,104.215s0,70.452,9.049,104.215a54.214,54.214,0,0,0,38.281,38.28c33.763,9.05,169.162,9.05,169.162,9.05s135.4,0,169.163-9.05a54.216,54.216,0,0,0,38.281-38.28c9.049-33.764,9.049-104.215,9.049-104.215s0-70.451-9.049-104.215M593.466,472.2V342.3l112.49,64.948Z" transform="translate(3014.408 805.186)" fill="#fff"/>
    <path id="Path_981" data-name="Path 981" d="M196.366,0C87.921,0,0,87.921,0,196.366A196.434,196.434,0,0,0,124.77,379.321c-1.779-15.516-3.232-39.436.645-56.406,3.555-15.354,22.949-97.618,22.949-97.618s-5.816-11.8-5.816-29.091c0-27.315,15.839-47.677,35.556-47.677,16.81,0,24.891,12.6,24.891,27.635,0,16.81-10.668,42.023-16.324,65.457-4.689,19.557,9.86,35.556,29.091,35.556,34.91,0,61.74-36.849,61.74-89.86,0-47.031-33.779-79.84-82.1-79.84-55.92,0-88.729,41.86-88.729,85.174,0,16.807,6.465,34.907,14.545,44.767a5.845,5.845,0,0,1,1.294,5.657c-1.453,6.142-4.848,19.557-5.494,22.3-.808,3.555-2.91,4.363-6.627,2.587-24.565-11.476-39.919-47.194-39.919-76.122,0-61.9,44.93-118.791,129.778-118.791,68.044,0,121.055,48.485,121.055,113.457,0,67.719-42.668,122.183-101.821,122.183-19.879,0-38.628-10.342-44.93-22.626,0,0-9.86,37.494-12.284,46.709-4.363,17.13-16.324,38.465-24.405,51.557a197.251,197.251,0,0,0,58.185,8.726c108.446,0,196.366-87.921,196.366-196.366A195.962,195.962,0,0,0,196.366,0" transform="translate(4098.994 1005.859)" fill="#fff"/>
  </g>
</svg>
