<svg id="socila-tab" xmlns="http://www.w3.org/2000/svg" width="169.298" height="22.956" viewBox="0 0 169.298 22.956">
  <path id="Path_980" data-name="Path 980" d="M20.724,10.362A10.362,10.362,0,1,0,8.743,20.6V13.357H6.112v-3H8.743V8.079a3.657,3.657,0,0,1,3.914-4.031,15.928,15.928,0,0,1,2.32.2V6.8H13.67a1.5,1.5,0,0,0-1.689,1.618v1.944h2.874l-.459,3H11.981V20.6a10.365,10.365,0,0,0,8.743-10.236" transform="translate(73.895 1.844)" fill="#fff"/>
  <path id="Path_970" data-name="Path 970" d="M434.249,49.755c3.065,0,3.428.012,4.638.067a6.349,6.349,0,0,1,2.131.4A3.8,3.8,0,0,1,443.2,52.4a6.353,6.353,0,0,1,.4,2.131c.055,1.21.067,1.573.067,4.638s-.012,3.428-.067,4.638a6.353,6.353,0,0,1-.4,2.131,3.8,3.8,0,0,1-2.178,2.178,6.356,6.356,0,0,1-2.131.4c-1.21.055-1.573.067-4.638.067s-3.428-.012-4.638-.067a6.355,6.355,0,0,1-2.131-.4,3.8,3.8,0,0,1-2.178-2.178,6.348,6.348,0,0,1-.4-2.131c-.055-1.21-.067-1.573-.067-4.638s.012-3.428.067-4.638a6.348,6.348,0,0,1,.4-2.131,3.8,3.8,0,0,1,2.178-2.178,6.348,6.348,0,0,1,2.131-.4c1.21-.055,1.573-.067,4.638-.067m0-2.068c-3.117,0-3.508.013-4.732.069a8.426,8.426,0,0,0-2.786.533,5.869,5.869,0,0,0-3.357,3.357,8.427,8.427,0,0,0-.533,2.786c-.056,1.224-.069,1.615-.069,4.732s.013,3.508.069,4.732a8.427,8.427,0,0,0,.533,2.786,5.869,5.869,0,0,0,3.357,3.357,8.426,8.426,0,0,0,2.786.533c1.224.056,1.615.069,4.732.069s3.508-.013,4.732-.069a8.425,8.425,0,0,0,2.786-.533,5.869,5.869,0,0,0,3.357-3.357,8.423,8.423,0,0,0,.533-2.786c.056-1.224.069-1.615.069-4.732s-.013-3.508-.069-4.732a8.423,8.423,0,0,0-.533-2.786,5.869,5.869,0,0,0-3.357-3.357,8.426,8.426,0,0,0-2.786-.533c-1.224-.056-1.615-.069-4.732-.069" transform="translate(-422.771 -47.687)" fill="#fff"/>
  <path id="Path_971" data-name="Path 971" d="M449.341,68.362a5.894,5.894,0,1,0,5.894,5.894,5.894,5.894,0,0,0-5.894-5.894m0,9.72a3.826,3.826,0,1,1,3.826-3.826,3.826,3.826,0,0,1-3.826,3.826" transform="translate(-437.63 -62.778)" fill="#fff"/>
  <path id="Path_974" data-name="Path 974" d="M880.071,77.661a13.981,13.981,0,0,0,14.077-14.077q0-.321-.014-.64a10.073,10.073,0,0,0,2.468-2.562,9.875,9.875,0,0,1-2.841.779,4.964,4.964,0,0,0,2.176-2.737,9.915,9.915,0,0,1-3.142,1.2,4.952,4.952,0,0,0-8.432,4.512,14.045,14.045,0,0,1-10.2-5.169,4.951,4.951,0,0,0,1.531,6.605,4.913,4.913,0,0,1-2.241-.619c0,.021,0,.041,0,.063a4.95,4.95,0,0,0,3.969,4.851,4.943,4.943,0,0,1-2.234.085,4.953,4.953,0,0,0,4.622,3.436,9.927,9.927,0,0,1-6.145,2.118,10.044,10.044,0,0,1-1.18-.068,14.006,14.006,0,0,0,7.584,2.222" transform="translate(-836.119 -54.705)" fill="#fff"/>
  <path id="Path_976" data-name="Path 976" d="M444.851,258.449a3.143,3.143,0,0,0-2.22-2.22c-1.958-.525-9.808-.525-9.808-.525s-7.85,0-9.808.525a3.143,3.143,0,0,0-2.219,2.22,35.052,35.052,0,0,0,0,12.085,3.143,3.143,0,0,0,2.219,2.219c1.958.525,9.808.525,9.808.525s7.85,0,9.808-.525a3.143,3.143,0,0,0,2.22-2.219,35.052,35.052,0,0,0,0-12.085m-14.538,9.808v-7.531l6.522,3.766Z" transform="translate(-312.241 -252.348)" fill="#fff"/>
  <path id="Path_981" data-name="Path 981" d="M11.385,0A11.389,11.389,0,0,0,7.234,21.993a10.962,10.962,0,0,1,.037-3.27c.206-.89,1.331-5.66,1.331-5.66a4.148,4.148,0,0,1-.337-1.687c0-1.584.918-2.764,2.061-2.764a1.431,1.431,0,0,1,1.443,1.6,22.511,22.511,0,0,1-.946,3.8,1.656,1.656,0,0,0,1.687,2.061c2.024,0,3.58-2.136,3.58-5.21a4.493,4.493,0,0,0-4.76-4.629A4.927,4.927,0,0,0,6.184,11.17a4.444,4.444,0,0,0,.843,2.6.339.339,0,0,1,.075.328c-.084.356-.281,1.134-.319,1.293-.047.206-.169.253-.384.15-1.424-.665-2.314-2.736-2.314-4.414,0-3.589,2.605-6.887,7.524-6.887,3.945,0,7.019,2.811,7.019,6.578,0,3.926-2.474,7.084-5.9,7.084a3.025,3.025,0,0,1-2.605-1.312l-.712,2.708a12.406,12.406,0,0,1-1.415,2.989A11.4,11.4,0,1,0,11.385,0" transform="translate(146.546 0.166)" fill="#fff"/>
</svg>
