<svg xmlns="http://www.w3.org/2000/svg" width="280.761" height="38.069" viewBox="0 0 280.761 38.069">
  <g id="socila-desktop" transform="translate(-1571.447 -1003)">
    <path id="Path_980" data-name="Path 980" d="M34.368,17.184A17.184,17.184,0,1,0,14.5,34.159V22.151H10.136V17.184H14.5V13.4c0-4.307,2.566-6.686,6.491-6.686a26.415,26.415,0,0,1,3.847.336v4.229H22.669a2.484,2.484,0,0,0-2.8,2.683v3.223h4.766l-.762,4.967h-4V34.159a17.188,17.188,0,0,0,14.5-16.975" transform="translate(1693.992 1006.059)" fill="#fff"/>
    <path id="Path_970" data-name="Path 970" d="M441.805,51.117c5.082,0,5.684.019,7.692.111a10.527,10.527,0,0,1,3.534.656,6.3,6.3,0,0,1,3.613,3.613,10.539,10.539,0,0,1,.656,3.534c.091,2.007.111,2.609.111,7.692s-.019,5.684-.111,7.692a10.539,10.539,0,0,1-.656,3.534,6.3,6.3,0,0,1-3.613,3.613,10.539,10.539,0,0,1-3.534.656c-2.007.091-2.609.111-7.692.111s-5.685-.019-7.692-.111a10.539,10.539,0,0,1-3.534-.656,6.3,6.3,0,0,1-3.613-3.613,10.529,10.529,0,0,1-.656-3.534c-.091-2.007-.111-2.609-.111-7.692s.019-5.684.111-7.692a10.529,10.529,0,0,1,.656-3.534,6.3,6.3,0,0,1,3.613-3.613,10.527,10.527,0,0,1,3.534-.656c2.007-.091,2.609-.111,7.692-.111m0-3.43c-5.169,0-5.818.022-7.848.115a13.973,13.973,0,0,0-4.62.885,9.732,9.732,0,0,0-5.567,5.567,13.973,13.973,0,0,0-.885,4.62c-.093,2.03-.115,2.679-.115,7.848s.022,5.818.115,7.848a13.973,13.973,0,0,0,.885,4.62,9.732,9.732,0,0,0,5.567,5.567,13.973,13.973,0,0,0,4.62.885c2.03.093,2.679.115,7.848.115s5.818-.022,7.848-.115a13.973,13.973,0,0,0,4.62-.885,9.732,9.732,0,0,0,5.567-5.567,13.971,13.971,0,0,0,.885-4.62c.093-2.03.115-2.679.115-7.848s-.022-5.818-.115-7.848a13.971,13.971,0,0,0-.885-4.62,9.732,9.732,0,0,0-5.567-5.567,13.972,13.972,0,0,0-4.62-.885c-2.03-.093-2.679-.115-7.848-.115" transform="translate(1148.676 955.313)" fill="#fff"/>
    <path id="Path_971" data-name="Path 971" d="M453.221,68.362A9.774,9.774,0,1,0,463,78.136a9.775,9.775,0,0,0-9.774-9.774m0,16.119a6.344,6.344,0,1,1,6.345-6.345,6.345,6.345,0,0,1-6.345,6.345" transform="translate(1137.646 943.898)" fill="#fff"/>
    <path id="Path_974" data-name="Path 974" d="M885.064,90.564c15.092,0,23.345-12.5,23.345-23.345q0-.533-.023-1.061a16.7,16.7,0,0,0,4.093-4.248,16.374,16.374,0,0,1-4.712,1.291,8.234,8.234,0,0,0,3.608-4.539,16.447,16.447,0,0,1-5.21,1.992,8.212,8.212,0,0,0-13.983,7.483,23.294,23.294,0,0,1-16.912-8.572,8.211,8.211,0,0,0,2.54,10.954,8.149,8.149,0,0,1-3.716-1.027c0,.034,0,.069,0,.1a8.209,8.209,0,0,0,6.582,8.044,8.2,8.2,0,0,1-3.705.141,8.214,8.214,0,0,0,7.665,5.7,16.463,16.463,0,0,1-10.191,3.512,16.657,16.657,0,0,1-1.957-.114,23.227,23.227,0,0,0,12.577,3.686" transform="translate(759.271 950.504)" fill="#fff"/>
    <path id="Path_976" data-name="Path 976" d="M461.034,260.256a5.213,5.213,0,0,0-3.681-3.681c-3.246-.87-16.265-.87-16.265-.87s-13.019,0-16.265.87a5.213,5.213,0,0,0-3.681,3.681c-.87,3.246-.87,10.021-.87,10.021s0,6.774.87,10.021a5.213,5.213,0,0,0,3.681,3.681c3.246.87,16.265.87,16.265.87s13.019,0,16.265-.87a5.213,5.213,0,0,0,3.681-3.681c.87-3.246.87-10.021.87-10.021s0-6.774-.87-10.021m-24.109,16.265v-12.49l10.816,6.245Z" transform="translate(1330.33 752.861)" fill="#fff"/>
    <path id="Path_981" data-name="Path 981" d="M18.881,0A18.887,18.887,0,0,0,12,36.473a18.178,18.178,0,0,1,.062-5.424c.342-1.476,2.207-9.386,2.207-9.386a6.88,6.88,0,0,1-.559-2.8c0-2.626,1.523-4.584,3.419-4.584a2.373,2.373,0,0,1,2.393,2.657c0,1.616-1.026,4.041-1.57,6.294a2.746,2.746,0,0,0,2.8,3.419c3.357,0,5.936-3.543,5.936-8.64,0-4.522-3.248-7.677-7.895-7.677a8.172,8.172,0,0,0-8.532,8.19,7.37,7.37,0,0,0,1.4,4.3.562.562,0,0,1,.124.544c-.14.591-.466,1.88-.528,2.145-.078.342-.28.42-.637.249-2.362-1.1-3.838-4.538-3.838-7.319,0-5.952,4.32-11.422,12.478-11.422,6.543,0,11.64,4.662,11.64,10.909,0,6.511-4.1,11.748-9.79,11.748a5.017,5.017,0,0,1-4.32-2.176L15.6,32a20.574,20.574,0,0,1-2.347,4.957A18.9,18.9,0,1,0,18.881,0" transform="translate(1814.477 1003.275)" fill="#fff"/>
  </g>
</svg>
