<svg id="social-mobile" xmlns="http://www.w3.org/2000/svg" width="105.666" height="14.328" viewBox="0 0 105.666 14.328">
  <path id="Path_980" data-name="Path 980" d="M12.935,6.467a6.467,6.467,0,1,0-7.478,6.389V8.337H3.815V6.467H5.457V5.042A2.282,2.282,0,0,1,7.9,2.526a9.941,9.941,0,0,1,1.448.126V4.244H8.532a.935.935,0,0,0-1.054,1.01V6.467H9.271L8.985,8.337H7.478v4.519a6.469,6.469,0,0,0,5.457-6.389" transform="translate(46.121 1.151)" fill="#fff"/>
  <path id="Path_970" data-name="Path 970" d="M429.935,48.978c1.913,0,2.139.007,2.895.042a3.962,3.962,0,0,1,1.33.247,2.372,2.372,0,0,1,1.36,1.36,3.967,3.967,0,0,1,.247,1.33c.034.755.042.982.042,2.895s-.007,2.139-.042,2.895a3.967,3.967,0,0,1-.247,1.33,2.372,2.372,0,0,1-1.36,1.36,3.966,3.966,0,0,1-1.33.247c-.755.034-.982.042-2.895.042s-2.139-.007-2.895-.042a3.966,3.966,0,0,1-1.33-.247,2.372,2.372,0,0,1-1.36-1.36,3.962,3.962,0,0,1-.247-1.33c-.034-.755-.042-.982-.042-2.895s.007-2.139.042-2.895a3.963,3.963,0,0,1,.247-1.33,2.372,2.372,0,0,1,1.36-1.36,3.962,3.962,0,0,1,1.33-.247c.756-.034.982-.042,2.895-.042m0-1.291c-1.946,0-2.19.008-2.954.043a5.259,5.259,0,0,0-1.739.333,3.663,3.663,0,0,0-2.1,2.1,5.261,5.261,0,0,0-.333,1.739c-.035.764-.043,1.008-.043,2.954s.008,2.19.043,2.954a5.261,5.261,0,0,0,.333,1.739,3.663,3.663,0,0,0,2.1,2.1,5.259,5.259,0,0,0,1.739.333c.764.035,1.008.043,2.954.043s2.19-.008,2.954-.043a5.258,5.258,0,0,0,1.739-.333,3.663,3.663,0,0,0,2.1-2.1,5.259,5.259,0,0,0,.333-1.739c.035-.764.043-1.008.043-2.954s-.008-2.19-.043-2.954a5.259,5.259,0,0,0-.333-1.739,3.663,3.663,0,0,0-2.1-2.1,5.258,5.258,0,0,0-1.739-.333c-.764-.035-1.008-.043-2.954-.043" transform="translate(-422.771 -47.687)" fill="#fff"/>
  <path id="Path_971" data-name="Path 971" d="M447.126,68.362a3.679,3.679,0,1,0,3.679,3.679,3.679,3.679,0,0,0-3.679-3.679m0,6.067a2.388,2.388,0,1,1,2.388-2.388,2.388,2.388,0,0,1-2.388,2.388" transform="translate(-439.816 -64.877)" fill="#fff"/>
  <path id="Path_974" data-name="Path 974" d="M877.22,70.294a8.726,8.726,0,0,0,8.786-8.786q0-.2-.009-.4a6.286,6.286,0,0,0,1.54-1.6,6.162,6.162,0,0,1-1.773.486,3.1,3.1,0,0,0,1.358-1.708,6.189,6.189,0,0,1-1.961.75,3.091,3.091,0,0,0-5.262,2.816,8.767,8.767,0,0,1-6.365-3.226,3.09,3.09,0,0,0,.956,4.122,3.067,3.067,0,0,1-1.4-.386c0,.013,0,.026,0,.039a3.089,3.089,0,0,0,2.477,3.027,3.085,3.085,0,0,1-1.394.053,3.091,3.091,0,0,0,2.885,2.145,6.2,6.2,0,0,1-3.835,1.322,6.272,6.272,0,0,1-.737-.043,8.742,8.742,0,0,0,4.734,1.387" transform="translate(-849.788 -55.967)" fill="#fff"/>
  <path id="Path_976" data-name="Path 976" d="M435.612,257.418a1.962,1.962,0,0,0-1.385-1.385,57.386,57.386,0,0,0-12.243,0,1.962,1.962,0,0,0-1.385,1.385,21.881,21.881,0,0,0,0,7.543,1.962,1.962,0,0,0,1.385,1.385,57.373,57.373,0,0,0,12.243,0,1.962,1.962,0,0,0,1.385-1.385,21.887,21.887,0,0,0,0-7.543m-9.074,6.122v-4.7l4.071,2.35Z" transform="translate(-352.845 -253.61)" fill="#fff"/>
  <path id="Path_981" data-name="Path 981" d="M7.106,0A7.108,7.108,0,0,0,4.515,13.727a6.842,6.842,0,0,1,.023-2.041c.129-.556.83-3.533.83-3.533A2.589,2.589,0,0,1,5.158,7.1c0-.988.573-1.725,1.287-1.725a.893.893,0,0,1,.9,1,14.05,14.05,0,0,1-.591,2.369A1.034,1.034,0,0,0,7.808,10.03c1.263,0,2.234-1.333,2.234-3.252A2.8,2.8,0,0,0,7.071,3.889,3.075,3.075,0,0,0,3.86,6.972a2.774,2.774,0,0,0,.526,1.62.212.212,0,0,1,.047.2c-.053.222-.175.708-.2.807-.029.129-.105.158-.24.094A3.184,3.184,0,0,1,2.55,6.942c0-2.24,1.626-4.3,4.7-4.3a4.171,4.171,0,0,1,4.381,4.106c0,2.451-1.544,4.422-3.685,4.422a1.888,1.888,0,0,1-1.626-.819l-.445,1.69a7.743,7.743,0,0,1-.883,1.866A7.112,7.112,0,1,0,7.106,0" transform="translate(91.466 0.103)" fill="#fff"/>
</svg>
